<?xml version="1.0" encoding="iso-8859-1"?>
<!-- Uploaded to: SVG Repo, www.svgrepo.com, Generator: SVG Repo Mixer Tools -->
<svg height="800px" width="800px" version="1.1" id="Layer_1" xmlns="http://www.w3.org/2000/svg" xmlns:xlink="http://www.w3.org/1999/xlink" 
	 viewBox="0 0 511.988 511.988" xml:space="preserve">
<path style="fill:#DA4453;" d="M448.039,213.323H362.9c-11.781,0-21.344,9.547-21.344,21.328v39.859
	c1.375-10.454,10.313-18.516,21.157-18.516h42.655c11.781,0,21.343,9.547,21.343,21.328v106.669
	c0,11.781-9.562,21.328-21.343,21.328h-42.655c-10.844,0-19.781-8.078-21.156-18.531v39.858c0,11.781,9.562,21.344,21.344,21.344
	h85.139c11.781,0,21.328-9.562,21.328-21.344V234.651C469.367,222.87,459.82,213.323,448.039,213.323z"/>
<path style="fill:#ED5564;" d="M362.62,490.645c0,11.78-9.562,21.343-21.344,21.343H63.954c-11.78,0-21.335-9.562-21.335-21.343
	V170.652c0-11.781,9.555-21.328,21.335-21.328h277.321c11.781,0,21.344,9.546,21.344,21.328V490.645z"/>
<path style="fill:#DA4453;" d="M341.276,490.645H63.954c-11.78,0-21.335-9.547-21.335-21.328v21.328
	c0,11.78,9.555,21.343,21.335,21.343h277.321c11.781,0,21.344-9.562,21.344-21.343v-21.328
	C362.62,481.098,353.056,490.645,341.276,490.645z"/>
<g>
	<path style="fill:#E6E9ED;" d="M296.246,110.622c-0.016-0.016-2.312-3.078-3.438-6.953c-1.297-4.547-0.5-7.859,2.688-11.062
		c8.672-8.688,11.531-19.984,8.078-31.812c-2.328-7.937-6.812-13.546-7.391-14.25c0,0,0,0,0-0.016l-0.031-0.016l0,0
		c-1.938-2.359-4.906-3.859-8.203-3.859c-5.891,0-10.672,4.781-10.672,10.672c0,2.578,0.938,4.953,2.469,6.796l0,0
		c0.016,0.031,2.266,2.938,3.344,6.671c1.281,4.359,0.469,7.578-2.688,10.75c-8.656,8.688-11.523,20.047-8.094,31.999
		c2.312,8.109,6.828,13.844,7.344,14.469l0,0c1.953,2.422,4.938,3.984,8.297,3.984c5.891,0,10.672-4.781,10.672-10.672
		c0-2.531-0.891-4.859-2.375-6.688V110.622z"/>
	<path style="fill:#E6E9ED;" d="M221.107,25.327c-3.18-11.937-9.312-20.218-10-21.124H211.1C209.146,1.656,206.077,0,202.616,0
		c-5.891,0-10.664,4.766-10.664,10.656c0,2.406,0.805,4.625,2.156,6.406l-0.016,0.016c0.047,0.047,4.492,6.094,6.547,14.312
		c2.453,9.828,0.484,18.188-6.016,25.531c-11.39,12.89-15.022,28.703-10.492,45.733c3.18,11.937,9.305,20.218,10,21.125h0.008
		c1.945,2.547,5.016,4.219,8.477,4.219c5.891,0,10.672-4.781,10.672-10.672c0-2.406-0.812-4.625-2.156-6.406l0.008-0.016
		c-0.047-0.062-4.492-6.093-6.539-14.312c-2.453-9.828-0.492-18.188,6.008-25.531C222.007,58.17,225.632,42.358,221.107,25.327z"/>
	<path style="fill:#E6E9ED;" d="M132.906,60.795c-2.32-7.937-6.805-13.546-7.383-14.25c0,0-0.008,0-0.008-0.016
		c-0.008,0-0.016-0.016-0.016-0.016l0,0c-1.961-2.359-4.914-3.859-8.211-3.859c-5.891,0-10.672,4.781-10.672,10.672
		c0,2.578,0.922,4.953,2.453,6.796l0,0c0.023,0.031,2.273,2.938,3.367,6.671c1.273,4.359,0.461,7.578-2.711,10.75
		c-8.641,8.688-11.516,20.047-8.078,31.999c2.32,8.109,6.828,13.844,7.336,14.469l0,0c1.953,2.422,4.945,3.984,8.305,3.984
		c5.891,0,10.664-4.781,10.664-10.672c0-2.531-0.891-4.859-2.367-6.688l0.008-0.016c-0.023-0.016-2.328-3.078-3.445-6.953
		c-1.305-4.547-0.5-7.859,2.695-11.062C133.501,83.92,136.367,72.623,132.906,60.795z"/>
</g>
<polygon style="fill:#FFCE54;" points="303.059,305.806 233.654,295.712 202.624,232.823 171.577,295.712 102.18,305.806 
	152.398,354.758 140.546,423.865 202.615,391.241 264.691,423.865 252.833,354.758 "/>
</svg>